<svg width="35" height="58" viewBox="0 0 35 58" fill="none" xmlns="http://www.w3.org/2000/svg">
<path d="M33.4474 47.0867C32.5664 46.5157 31.8174 45.7647 31.2494 44.8827C30.6814 43.9997 30.3074 43.0077 30.1514 41.9697L29.6114 38.3997C29.5984 38.3147 29.5554 38.2367 29.4904 38.1817C29.4244 38.1257 29.3414 38.0947 29.2554 38.0957C29.1694 38.0947 29.0864 38.1257 29.0204 38.1817C28.9554 38.2367 28.9124 38.3147 28.9004 38.3997L28.3664 41.9697C28.2114 43.0077 27.8375 43.9997 27.2695 44.8827C26.7005 45.7647 25.9515 46.5157 25.0715 47.0867L24.6044 47.3837C24.5534 47.4157 24.5124 47.4607 24.4834 47.5137C24.4554 47.5667 24.4405 47.6267 24.4415 47.6867C24.4415 47.7457 24.4564 47.8047 24.4844 47.8557C24.5134 47.9077 24.5544 47.9517 24.6044 47.9827L25.0715 48.2867C25.9505 48.8567 26.6994 49.6067 27.2674 50.4877C27.8354 51.3687 28.2104 52.3607 28.3664 53.3967L28.9004 56.9667C28.9124 57.0517 28.9554 57.1297 29.0204 57.1847C29.0864 57.2407 29.1694 57.2717 29.2554 57.2707C29.3414 57.2717 29.4244 57.2407 29.4904 57.1847C29.5554 57.1297 29.5984 57.0517 29.6114 56.9667L30.1514 53.3967C30.3044 52.3597 30.6774 51.3667 31.2464 50.4847C31.8144 49.6037 32.5654 48.8537 33.4474 48.2867L33.9144 47.9827C33.9644 47.9517 34.0054 47.9077 34.0334 47.8557C34.0624 47.8047 34.0775 47.7457 34.0765 47.6867C34.0775 47.6267 34.0634 47.5667 34.0344 47.5137C34.0064 47.4607 33.9644 47.4157 33.9144 47.3837L33.4474 47.0867Z" fill="#6366F1"/>
<path d="M12.7231 12.716C11.4751 11.913 10.4121 10.853 9.60605 9.606C8.80005 8.35999 8.27008 6.956 8.05008 5.487L7.31003 0.429001C7.29003 0.309001 7.22906 0.199994 7.13706 0.121994C7.04406 0.042994 6.92706 0 6.80606 0C6.68506 0 6.56707 0.042994 6.47507 0.121994C6.38307 0.199994 6.32203 0.309001 6.30203 0.429001L5.56204 5.487C5.34204 6.956 4.81207 8.35999 4.00607 9.606C3.20007 10.853 2.13703 11.913 0.888033 12.716L0.237032 13.138C0.165032 13.184 0.106059 13.248 0.0640585 13.323C0.0230585 13.398 0.00103263 13.482 3.26335e-05 13.567C-0.000967367 13.653 0.0210444 13.738 0.0620444 13.813C0.104044 13.888 0.164032 13.952 0.237032 13.997L0.888033 14.419C2.13703 15.224 3.19904 16.286 4.00504 17.534C4.81004 18.781 5.34104 20.186 5.56204 21.655L6.30203 26.706C6.32003 26.827 6.38105 26.938 6.47305 27.018C6.56505 27.098 6.68406 27.142 6.80606 27.143C6.92806 27.142 7.04607 27.098 7.13907 27.018C7.23107 26.938 7.29203 26.827 7.31003 26.706L8.05008 21.655C8.27108 20.186 8.80103 18.781 9.60703 17.534C10.413 16.286 11.4751 15.224 12.7231 14.419L13.375 13.997C13.448 13.952 13.508 13.888 13.549 13.813C13.591 13.738 13.613 13.653 13.612 13.567C13.611 13.482 13.5891 13.398 13.5481 13.323C13.5061 13.248 13.447 13.184 13.375 13.138L12.7231 12.716Z" fill="#6366F1"/>
</svg>
