<svg width="1220" height="710" viewBox="0 0 1220 710" fill="none" xmlns="http://www.w3.org/2000/svg">
<path d="M1.38199 204.124C3.29873 203.291 4.93007 202.196 6.16783 200.909C7.4056 199.623 8.22126 198.174 8.56224 196.66L9.73391 191.443C9.75945 191.319 9.85108 191.206 9.99228 191.125C10.1335 191.043 10.3138 190.999 10.5 191C10.6878 191 10.868 191.045 11.0107 191.126C11.1535 191.207 11.2496 191.319 11.2811 191.443L12.4378 196.66C12.7787 198.175 13.5959 199.625 14.8367 200.912C16.0775 202.198 17.7133 203.293 19.633 204.124L20.6395 204.557C20.7507 204.604 20.8423 204.67 20.9054 204.747C20.9685 204.825 21 204.911 21 205C21 205.089 20.9685 205.175 20.9054 205.253C20.8423 205.33 20.7507 205.396 20.6395 205.443L19.633 205.876C17.7133 206.706 16.0775 207.802 14.8367 209.088C13.5959 210.375 12.7787 211.825 12.4378 213.34L11.2811 218.557C11.2496 218.681 11.1535 218.793 11.0107 218.874C10.868 218.955 10.6878 218.999 10.5 219C10.3138 219.001 10.1335 218.957 9.99228 218.875C9.85108 218.794 9.75945 218.681 9.73391 218.557L8.56224 213.34C8.22126 211.826 7.4056 210.377 6.16783 209.091C4.93007 207.804 3.29873 206.708 1.38199 205.876L0.360546 205.443C0.249388 205.396 0.159222 205.33 0.0961304 205.253C0.033041 205.175 0 205.089 0 205C0 204.911 0.033041 204.825 0.0961304 204.747C0.159222 204.67 0.249388 204.604 0.360546 204.557L1.38199 204.124Z" fill="#808AFF"/>
<path d="M1200.38 204.124C1202.3 203.291 1203.93 202.196 1205.17 200.909C1206.41 199.623 1207.22 198.174 1207.56 196.66L1208.73 191.443C1208.76 191.319 1208.85 191.206 1208.99 191.125C1209.13 191.043 1209.31 190.999 1209.5 191C1209.69 191 1209.87 191.045 1210.01 191.126C1210.15 191.207 1210.25 191.319 1210.28 191.443L1211.44 196.66C1211.78 198.175 1212.6 199.625 1213.84 200.912C1215.08 202.198 1216.71 203.293 1218.63 204.124L1219.64 204.557C1219.75 204.604 1219.84 204.67 1219.91 204.747C1219.97 204.825 1220 204.911 1220 205C1220 205.089 1219.97 205.175 1219.91 205.253C1219.84 205.33 1219.75 205.396 1219.64 205.443L1218.63 205.876C1216.71 206.706 1215.08 207.802 1213.84 209.088C1212.6 210.375 1211.78 211.825 1211.44 213.34L1210.28 218.557C1210.25 218.681 1210.15 218.793 1210.01 218.874C1209.87 218.955 1209.69 218.999 1209.5 219C1209.31 219.001 1209.13 218.957 1208.99 218.875C1208.85 218.794 1208.76 218.681 1208.73 218.557L1207.56 213.34C1207.22 211.826 1206.41 210.377 1205.17 209.091C1203.93 207.804 1202.3 206.708 1200.38 205.876L1199.36 205.443C1199.25 205.396 1199.16 205.33 1199.1 205.253C1199.03 205.175 1199 205.089 1199 205C1199 204.911 1199.03 204.825 1199.1 204.747C1199.16 204.67 1199.25 204.604 1199.36 204.557L1200.38 204.124Z" fill="#808AFF" fill-opacity="0.4"/>
<path d="M98.382 321.124C100.299 320.291 101.93 319.196 103.168 317.909C104.406 316.623 105.221 315.174 105.562 313.66L106.734 308.443C106.759 308.319 106.851 308.206 106.992 308.125C107.133 308.043 107.314 307.999 107.5 308C107.688 308 107.868 308.045 108.011 308.126C108.153 308.207 108.25 308.319 108.281 308.443L109.438 313.66C109.779 315.175 110.596 316.625 111.837 317.912C113.077 319.198 114.713 320.293 116.633 321.124L117.639 321.557C117.751 321.604 117.842 321.67 117.905 321.747C117.968 321.825 118 321.911 118 322C118 322.089 117.968 322.175 117.905 322.253C117.842 322.33 117.751 322.396 117.639 322.443L116.633 322.876C114.713 323.706 113.077 324.802 111.837 326.088C110.596 327.375 109.779 328.825 109.438 330.34L108.281 335.557C108.25 335.681 108.153 335.793 108.011 335.874C107.868 335.955 107.688 335.999 107.5 336C107.314 336.001 107.133 335.957 106.992 335.875C106.851 335.793 106.759 335.681 106.734 335.557L105.562 330.34C105.221 328.826 104.406 327.377 103.168 326.091C101.93 324.804 100.299 323.708 98.382 322.876L97.3605 322.443C97.2494 322.396 97.1592 322.33 97.0961 322.253C97.033 322.175 97 322.089 97 322C97 321.911 97.033 321.825 97.0961 321.747C97.1592 321.67 97.2494 321.604 97.3605 321.557L98.382 321.124Z" fill="#808AFF"/>
<path d="M88.382 562.124C90.2987 561.291 91.9301 560.196 93.1678 558.909C94.4056 557.623 95.2213 556.174 95.5622 554.66L96.7339 549.443C96.7595 549.319 96.8511 549.206 96.9923 549.125C97.1335 549.043 97.3138 548.999 97.5 549C97.6878 549 97.868 549.045 98.0107 549.126C98.1535 549.207 98.2496 549.319 98.2811 549.443L99.4378 554.66C99.7787 556.175 100.596 557.625 101.837 558.912C103.077 560.198 104.713 561.293 106.633 562.124L107.639 562.557C107.751 562.604 107.842 562.67 107.905 562.747C107.968 562.825 108 562.911 108 563C108 563.089 107.968 563.175 107.905 563.253C107.842 563.33 107.751 563.396 107.639 563.443L106.633 563.876C104.713 564.706 103.077 565.802 101.837 567.088C100.596 568.375 99.7787 569.825 99.4378 571.34L98.2811 576.557C98.2496 576.681 98.1535 576.793 98.0107 576.874C97.868 576.955 97.6878 576.999 97.5 577C97.3138 577.001 97.1335 576.957 96.9923 576.875C96.8511 576.794 96.7595 576.681 96.7339 576.557L95.5622 571.34C95.2213 569.826 94.4056 568.377 93.1678 567.091C91.9301 565.804 90.2987 564.708 88.382 563.876L87.3605 563.443C87.2494 563.396 87.1592 563.33 87.0961 563.253C87.033 563.175 87 563.089 87 563C87 562.911 87.033 562.825 87.0961 562.747C87.1592 562.67 87.2494 562.604 87.3605 562.557L88.382 562.124Z" fill="#808AFF"/>
<path d="M1.04465 444.253C2.50763 443.539 3.75141 442.599 4.69463 441.495C5.63784 440.39 6.25894 439.148 6.518 437.849L7.41468 433.381C7.43627 433.274 7.50773 433.177 7.61567 433.108C7.72527 433.038 7.86307 432.999 8.00588 433C8.14869 432.999 8.2865 433.038 8.3961 433.108C8.50403 433.177 8.57543 433.274 8.59536 433.381L9.48211 437.849C9.7395 439.148 10.3605 440.39 11.3038 441.495C12.2486 442.599 13.4924 443.539 14.9537 444.253L15.7293 444.625C15.814 444.665 15.882 444.722 15.9302 444.788C15.9767 444.854 16.0016 444.929 15.9999 445.004C15.9999 445.078 15.9751 445.152 15.9286 445.216C15.8804 445.281 15.8123 445.336 15.7293 445.375L14.9537 445.755C13.4941 446.469 12.2503 447.407 11.3071 448.51C10.3639 449.613 9.74116 450.854 9.48211 452.151L8.59536 456.619C8.57543 456.726 8.50403 456.823 8.3961 456.892C8.2865 456.962 8.14869 457.001 8.00588 457C7.86307 457.001 7.72527 456.962 7.61567 456.892C7.50773 456.823 7.43627 456.726 7.41468 456.619L6.518 452.151C6.26392 450.853 5.64447 449.61 4.69959 448.506C3.75638 447.404 2.50929 446.465 1.04465 445.755L0.26918 445.375C0.186152 445.336 0.118036 445.281 0.0715389 445.216C0.0233822 445.152 -0.00157547 445.078 8.39233e-05 445.004C-0.00157547 444.929 0.02176 444.854 0.0699177 444.788C0.116414 444.722 0.186152 444.665 0.26918 444.625L1.04465 444.253Z" fill="#808AFF" fill-opacity="0.7"/>
<path d="M1113.38 335.124C1115.3 334.291 1116.93 333.196 1118.17 331.909C1119.41 330.623 1120.22 329.174 1120.56 327.66L1121.73 322.443C1121.76 322.319 1121.85 322.206 1121.99 322.125C1122.13 322.043 1122.31 321.999 1122.5 322C1122.69 322 1122.87 322.045 1123.01 322.126C1123.15 322.207 1123.25 322.319 1123.28 322.443L1124.44 327.66C1124.78 329.175 1125.6 330.625 1126.84 331.912C1128.08 333.198 1129.71 334.293 1131.63 335.124L1132.64 335.557C1132.75 335.604 1132.84 335.67 1132.91 335.747C1132.97 335.825 1133 335.911 1133 336C1133 336.089 1132.97 336.175 1132.91 336.253C1132.84 336.33 1132.75 336.396 1132.64 336.443L1131.63 336.876C1129.71 337.706 1128.08 338.802 1126.84 340.088C1125.6 341.375 1124.78 342.825 1124.44 344.34L1123.28 349.557C1123.25 349.681 1123.15 349.793 1123.01 349.874C1122.87 349.955 1122.69 349.999 1122.5 350C1122.31 350.001 1122.13 349.957 1121.99 349.875C1121.85 349.793 1121.76 349.681 1121.73 349.557L1120.56 344.34C1120.22 342.826 1119.41 341.377 1118.17 340.091C1116.93 338.804 1115.3 337.708 1113.38 336.876L1112.36 336.443C1112.25 336.396 1112.16 336.33 1112.1 336.253C1112.03 336.175 1112 336.089 1112 336C1112 335.911 1112.03 335.825 1112.1 335.747C1112.16 335.67 1112.25 335.604 1112.36 335.557L1113.38 335.124Z" fill="#808AFF"/>
<path d="M1200.38 458.124C1202.3 457.291 1203.93 456.196 1205.17 454.909C1206.41 453.623 1207.22 452.174 1207.56 450.66L1208.73 445.443C1208.76 445.319 1208.85 445.206 1208.99 445.125C1209.13 445.043 1209.31 444.999 1209.5 445C1209.69 445 1209.87 445.045 1210.01 445.126C1210.15 445.207 1210.25 445.319 1210.28 445.443L1211.44 450.66C1211.78 452.175 1212.6 453.625 1213.84 454.912C1215.08 456.198 1216.71 457.293 1218.63 458.124L1219.64 458.557C1219.75 458.604 1219.84 458.67 1219.91 458.747C1219.97 458.825 1220 458.911 1220 459C1220 459.089 1219.97 459.175 1219.91 459.253C1219.84 459.33 1219.75 459.396 1219.64 459.443L1218.63 459.876C1216.71 460.706 1215.08 461.802 1213.84 463.088C1212.6 464.375 1211.78 465.825 1211.44 467.34L1210.28 472.557C1210.25 472.681 1210.15 472.793 1210.01 472.874C1209.87 472.955 1209.69 472.999 1209.5 473C1209.31 473.001 1209.13 472.957 1208.99 472.875C1208.85 472.794 1208.76 472.681 1208.73 472.557L1207.56 467.34C1207.22 465.826 1206.41 464.377 1205.17 463.091C1203.93 461.804 1202.3 460.708 1200.38 459.876L1199.36 459.443C1199.25 459.396 1199.16 459.33 1199.1 459.253C1199.03 459.175 1199 459.089 1199 459C1199 458.911 1199.03 458.825 1199.1 458.747C1199.16 458.67 1199.25 458.604 1199.36 458.557L1200.38 458.124Z" fill="#808AFF" fill-opacity="0.7"/>
<path d="M1113.38 570.124C1115.3 569.291 1116.93 568.196 1118.17 566.909C1119.41 565.623 1120.22 564.174 1120.56 562.66L1121.73 557.443C1121.76 557.319 1121.85 557.206 1121.99 557.125C1122.13 557.043 1122.31 556.999 1122.5 557C1122.69 557 1122.87 557.045 1123.01 557.126C1123.15 557.207 1123.25 557.319 1123.28 557.443L1124.44 562.66C1124.78 564.175 1125.6 565.625 1126.84 566.912C1128.08 568.198 1129.71 569.293 1131.63 570.124L1132.64 570.557C1132.75 570.604 1132.84 570.67 1132.91 570.747C1132.97 570.825 1133 570.911 1133 571C1133 571.089 1132.97 571.175 1132.91 571.253C1132.84 571.33 1132.75 571.396 1132.64 571.443L1131.63 571.876C1129.71 572.706 1128.08 573.802 1126.84 575.088C1125.6 576.375 1124.78 577.825 1124.44 579.34L1123.28 584.557C1123.25 584.681 1123.15 584.793 1123.01 584.874C1122.87 584.955 1122.69 584.999 1122.5 585C1122.31 585.001 1122.13 584.957 1121.99 584.875C1121.85 584.794 1121.76 584.681 1121.73 584.557L1120.56 579.34C1120.22 577.826 1119.41 576.377 1118.17 575.091C1116.93 573.804 1115.3 572.708 1113.38 571.876L1112.36 571.443C1112.25 571.396 1112.16 571.33 1112.1 571.253C1112.03 571.175 1112 571.089 1112 571C1112 570.911 1112.03 570.825 1112.1 570.747C1112.16 570.67 1112.25 570.604 1112.36 570.557L1113.38 570.124Z" fill="#808AFF"/>
<path d="M863.382 667.124C865.299 666.291 866.93 665.196 868.168 663.909C869.406 662.623 870.221 661.174 870.562 659.66L871.734 654.443C871.759 654.319 871.851 654.206 871.992 654.125C872.133 654.043 872.314 653.999 872.5 654C872.688 654 872.868 654.045 873.011 654.126C873.153 654.207 873.25 654.319 873.281 654.443L874.438 659.66C874.779 661.175 875.596 662.625 876.837 663.912C878.077 665.198 879.713 666.293 881.633 667.124L882.639 667.557C882.751 667.604 882.842 667.67 882.905 667.747C882.968 667.825 883 667.911 883 668C883 668.089 882.968 668.175 882.905 668.253C882.842 668.33 882.751 668.396 882.639 668.443L881.633 668.876C879.713 669.706 878.077 670.802 876.837 672.088C875.596 673.375 874.779 674.825 874.438 676.34L873.281 681.557C873.25 681.681 873.153 681.793 873.011 681.874C872.868 681.955 872.688 681.999 872.5 682C872.314 682.001 872.133 681.957 871.992 681.875C871.851 681.794 871.759 681.681 871.734 681.557L870.562 676.34C870.221 674.826 869.406 673.377 868.168 672.091C866.93 670.804 865.299 669.708 863.382 668.876L862.361 668.443C862.249 668.396 862.159 668.33 862.096 668.253C862.033 668.175 862 668.089 862 668C862 667.911 862.033 667.825 862.096 667.747C862.159 667.67 862.249 667.604 862.361 667.557L863.382 667.124Z" fill="#808AFF" fill-opacity="0.5"/>
<path d="M263.382 667.124C265.299 666.291 266.93 665.196 268.168 663.909C269.406 662.623 270.221 661.174 270.562 659.66L271.734 654.443C271.759 654.319 271.851 654.206 271.992 654.125C272.133 654.043 272.314 653.999 272.5 654C272.688 654 272.868 654.045 273.011 654.126C273.153 654.207 273.25 654.319 273.281 654.443L274.438 659.66C274.779 661.175 275.596 662.625 276.837 663.912C278.077 665.198 279.713 666.293 281.633 667.124L282.639 667.557C282.751 667.604 282.842 667.67 282.905 667.747C282.968 667.825 283 667.911 283 668C283 668.089 282.968 668.175 282.905 668.253C282.842 668.33 282.751 668.396 282.639 668.443L281.633 668.876C279.713 669.706 278.077 670.802 276.837 672.088C275.596 673.375 274.779 674.825 274.438 676.34L273.281 681.557C273.25 681.681 273.153 681.793 273.011 681.874C272.868 681.955 272.688 681.999 272.5 682C272.314 682.001 272.133 681.957 271.992 681.875C271.851 681.794 271.759 681.681 271.734 681.557L270.562 676.34C270.221 674.826 269.406 673.377 268.168 672.091C266.93 670.804 265.299 669.708 263.382 668.876L262.361 668.443C262.249 668.396 262.159 668.33 262.096 668.253C262.033 668.175 262 668.089 262 668C262 667.911 262.033 667.825 262.096 667.747C262.159 667.67 262.249 667.604 262.361 667.557L263.382 667.124Z" fill="#808AFF" fill-opacity="0.7"/>
<path d="M9.38199 695.124C11.2987 694.291 12.9301 693.196 14.1678 691.909C15.4056 690.623 16.2213 689.174 16.5622 687.66L17.7339 682.443C17.7595 682.319 17.8511 682.206 17.9923 682.125C18.1335 682.043 18.3138 681.999 18.5 682C18.6878 682 18.868 682.045 19.0107 682.126C19.1535 682.207 19.2496 682.319 19.2811 682.443L20.4378 687.66C20.7787 689.175 21.5959 690.625 22.8367 691.912C24.0775 693.198 25.7133 694.293 27.633 695.124L28.6395 695.557C28.7507 695.604 28.8423 695.67 28.9054 695.747C28.9685 695.825 29 695.911 29 696C29 696.089 28.9685 696.175 28.9054 696.253C28.8423 696.33 28.7507 696.396 28.6395 696.443L27.633 696.876C25.7133 697.706 24.0775 698.802 22.8367 700.088C21.5959 701.375 20.7787 702.825 20.4378 704.34L19.2811 709.557C19.2496 709.681 19.1535 709.793 19.0107 709.874C18.868 709.955 18.6878 709.999 18.5 710C18.3138 710.001 18.1335 709.957 17.9923 709.875C17.8511 709.794 17.7595 709.681 17.7339 709.557L16.5622 704.34C16.2213 702.826 15.4056 701.377 14.1678 700.091C12.9301 698.804 11.2987 697.708 9.38199 696.876L8.36055 696.443C8.24939 696.396 8.15922 696.33 8.09613 696.253C8.03304 696.175 8 696.089 8 696C8 695.911 8.03304 695.825 8.09613 695.747C8.15922 695.67 8.24939 695.604 8.36055 695.557L9.38199 695.124Z" fill="#808AFF" fill-opacity="0.3"/>
<path d="M1179.38 695.124C1181.3 694.291 1182.93 693.196 1184.17 691.909C1185.41 690.623 1186.22 689.174 1186.56 687.66L1187.73 682.443C1187.76 682.319 1187.85 682.206 1187.99 682.125C1188.13 682.043 1188.31 681.999 1188.5 682C1188.69 682 1188.87 682.045 1189.01 682.126C1189.15 682.207 1189.25 682.319 1189.28 682.443L1190.44 687.66C1190.78 689.175 1191.6 690.625 1192.84 691.912C1194.08 693.198 1195.71 694.293 1197.63 695.124L1198.64 695.557C1198.75 695.604 1198.84 695.67 1198.91 695.747C1198.97 695.825 1199 695.911 1199 696C1199 696.089 1198.97 696.175 1198.91 696.253C1198.84 696.33 1198.75 696.396 1198.64 696.443L1197.63 696.876C1195.71 697.706 1194.08 698.802 1192.84 700.088C1191.6 701.375 1190.78 702.825 1190.44 704.34L1189.28 709.557C1189.25 709.681 1189.15 709.793 1189.01 709.874C1188.87 709.955 1188.69 709.999 1188.5 710C1188.31 710.001 1188.13 709.957 1187.99 709.875C1187.85 709.794 1187.76 709.681 1187.73 709.557L1186.56 704.34C1186.22 702.826 1185.41 701.377 1184.17 700.091C1182.93 698.804 1181.3 697.708 1179.38 696.876L1178.36 696.443C1178.25 696.396 1178.16 696.33 1178.1 696.253C1178.03 696.175 1178 696.089 1178 696C1178 695.911 1178.03 695.825 1178.1 695.747C1178.16 695.67 1178.25 695.604 1178.36 695.557L1179.38 695.124Z" fill="#808AFF" fill-opacity="0.4"/>
<path d="M894.933 44.8918C896.31 44.3299 897.482 43.5886 898.373 42.7176C899.262 41.8459 899.85 40.8639 900.095 39.8377L900.922 36.3025C900.942 36.2178 901.01 36.1405 901.113 36.0847C901.217 36.0289 901.348 35.9987 901.484 36C901.618 36.0007 901.746 36.0316 901.847 36.0867C901.948 36.1425 902.015 36.2185 902.035 36.3025L902.873 39.8377C903.113 40.8639 903.698 41.8465 904.586 42.7182C905.474 43.5899 906.647 44.3306 908.025 44.8918L908.746 45.1875C908.824 45.2204 908.888 45.2655 908.932 45.3185C908.977 45.371 909 45.4301 909 45.4899C909.001 45.5491 908.978 45.6069 908.933 45.6586C908.889 45.7111 908.824 45.7541 908.746 45.7857L908.025 46.0814C906.652 46.6493 905.486 47.396 904.605 48.2724C903.724 49.1488 903.147 50.1341 902.915 51.1624L902.078 54.6975C902.058 54.7816 901.991 54.8575 901.889 54.9133C901.788 54.9684 901.66 54.9993 901.527 55C901.391 55.0007 901.259 54.9711 901.156 54.9153C901.053 54.8595 900.985 54.7822 900.965 54.6975L900.138 51.1624C899.891 50.1354 899.304 49.1528 898.413 48.2805C897.524 47.4081 896.351 46.6654 894.975 46.1015L894.255 45.8058C894.175 45.7742 894.11 45.7312 894.066 45.6788C894.021 45.627 893.998 45.5692 894 45.5101C893.999 45.4503 894.022 45.3911 894.067 45.3387C894.111 45.2856 894.176 45.2406 894.255 45.2076L894.933 44.8918Z" fill="#66BCFF" fill-opacity="0.7"/>
<path d="M861.171 7.96415C862.82 7.46088 864.225 6.79475 865.292 6.012C866.359 5.22924 867.061 4.34774 867.355 3.42524L868.348 0.273215C868.371 0.197567 868.45 0.127159 868.571 0.0767265C868.693 0.0262941 868.85 -0.00102145 869.011 2.9221e-05C869.172 -0.00102145 869.329 0.0262941 869.451 0.0767265C869.572 0.127159 869.652 0.197567 869.674 0.273215L870.667 3.42524C870.957 4.34668 871.655 5.2282 872.719 6.01095C873.782 6.79371 875.182 7.45983 876.829 7.96415L877.691 8.23734C877.786 8.26466 877.865 8.30353 877.918 8.34976C877.974 8.39493 878 8.44747 878 8.50001C878 8.55464 877.971 8.60717 877.918 8.6555C877.865 8.70278 877.786 8.74376 877.691 8.77318L876.829 9.03585C875.182 9.54017 873.782 10.2063 872.719 10.989C871.655 11.7718 870.957 12.6533 870.667 13.5748L869.674 16.7268C869.652 16.8024 869.572 16.8728 869.451 16.9233C869.329 16.9737 869.172 17.001 869.011 17C868.85 17.001 868.693 16.9737 868.571 16.9233C868.45 16.8728 868.371 16.8024 868.348 16.7268L867.355 13.5748C867.061 12.6523 866.359 11.7708 865.292 10.988C864.225 10.2053 862.82 9.53912 861.171 9.03585L860.309 8.77318C860.219 8.74166 860.144 8.70068 860.088 8.6534C860.035 8.60612 860.004 8.55359 860 8.50001C860.004 8.44747 860.033 8.39598 860.086 8.3508C860.141 8.30457 860.216 8.26571 860.309 8.23734L861.171 7.96415Z" fill="#66BCFF" fill-opacity="0.7"/>
</svg>
